# xmcd
#
# Track frame offsets:
#	180
#	16724
#	29080
#	46587
#	56346
#	68546
#	84832
#	97359
#	110245
#	127119
#
# Disc length: 1861 seconds
#
# Revision: 0
# Processed by: cddbd v1.5.1PL0 Copyright (c) Steve Scherf et al.
# Submitted via: dBpowerAMP V4.0
#
DISCID=7f07430a
DTITLE=Merle Haggard - Merle Haggard
DYEAR=2002
DGENRE=
TTITLE0=Hungry Eyes
TTITLE1=If We Make It Through December
TTITLE2=I Think I'll Just Stay Here and Drink
TTITLE3=Mama Tried
TTITLE4=Okie From Muskogee
TTITLE5=Ramblin' Fever
TTITLE6=Silver Wings
TTITLE7=The Fightin' Side of Me
TTITLE8=Today I Started Loving You Again
TTITLE9=Workin' Man Blues
EXTD=
EXTT0=
EXTT1=
EXTT2=
EXTT3=
EXTT4=
EXTT5=
EXTT6=
EXTT7=
EXTT8=
EXTT9=
PLAYORDER=
